<svg width="1461" height="729" viewBox="0 0 1461 729" fill="none" xmlns="http://www.w3.org/2000/svg">
<g clip-path="url(#clip0_739_672)">
<g filter="url(#filter0_if_739_672)">
<path d="M375 703C375 829.473 251.654 932 99.5 932C-52.6545 932 -176 829.473 -176 703C-176 576.527 -52.6545 474 99.5 474C251.654 474 375 576.527 375 703Z" fill="#3AD893" fill-opacity="0.5"/>
</g>
<g filter="url(#filter1_if_739_672)">
<path d="M1683.5 42C1683.5 168.473 1481.65 305.5 1329.5 305.5C1177.35 305.5 1054 202.973 1054 76.5C1054 -49.9732 1255.85 -187 1408 -187C1560.15 -187 1683.5 -84.4732 1683.5 42Z" fill="#3AD893" fill-opacity="0.5"/>
</g>
</g>
<defs>
<filter id="filter0_if_739_672" x="-476" y="174" width="1151" height="1058" filterUnits="userSpaceOnUse" color-interpolation-filters="sRGB">
<feFlood flood-opacity="0" result="BackgroundImageFix"/>
<feBlend mode="normal" in="SourceGraphic" in2="BackgroundImageFix" result="shape"/>
<feColorMatrix in="SourceAlpha" type="matrix" values="0 0 0 0 0 0 0 0 0 0 0 0 0 0 0 0 0 0 127 0" result="hardAlpha"/>
<feOffset dy="4"/>
<feGaussianBlur stdDeviation="2"/>
<feComposite in2="hardAlpha" operator="arithmetic" k2="-1" k3="1"/>
<feColorMatrix type="matrix" values="0 0 0 0 0 0 0 0 0 0 0 0 0 0 0 0 0 0 0.25 0"/>
<feBlend mode="normal" in2="shape" result="effect1_innerShadow_739_672"/>
<feGaussianBlur stdDeviation="150" result="effect2_foregroundBlur_739_672"/>
</filter>
<filter id="filter1_if_739_672" x="754" y="-487" width="1229.5" height="1092.5" filterUnits="userSpaceOnUse" color-interpolation-filters="sRGB">
<feFlood flood-opacity="0" result="BackgroundImageFix"/>
<feBlend mode="normal" in="SourceGraphic" in2="BackgroundImageFix" result="shape"/>
<feColorMatrix in="SourceAlpha" type="matrix" values="0 0 0 0 0 0 0 0 0 0 0 0 0 0 0 0 0 0 127 0" result="hardAlpha"/>
<feOffset dy="4"/>
<feGaussianBlur stdDeviation="2"/>
<feComposite in2="hardAlpha" operator="arithmetic" k2="-1" k3="1"/>
<feColorMatrix type="matrix" values="0 0 0 0 0 0 0 0 0 0 0 0 0 0 0 0 0 0 0.25 0"/>
<feBlend mode="normal" in2="shape" result="effect1_innerShadow_739_672"/>
<feGaussianBlur stdDeviation="150" result="effect2_foregroundBlur_739_672"/>
</filter>
<clipPath id="clip0_739_672">
<rect width="1461" height="729" fill="white"/>
</clipPath>
</defs>
</svg>
