<svg width="496" height="424" viewBox="0 0 496 424" fill="none" xmlns="http://www.w3.org/2000/svg">
<path d="M435.68 273.692C424.76 253.059 419.64 233.087 425.649 210.235C432.015 186.156 444.267 160.557 440.454 135.093C434.705 97.2095 407.29 59.0074 371.941 36.0689C337.876 14.0009 296.433 6.01963 259.875 26.1506C229.758 42.7506 210.807 77.6426 174.287 82.5466C131.634 88.3333 114.361 58.5415 67.1064 77.9981C48.5254 85.6484 32.56 99.5512 25.1572 118.456C16.8661 139.862 24.0221 155.861 32.8685 175.808C42.3882 197.454 46.8672 220.957 45.9715 244.563C45.1942 265.478 36.6439 285.021 36.6069 305.863C36.5329 342.643 59.0991 379.202 95.8293 389.231C141.887 401.809 186.81 333.153 237.482 328.58C263.91 326.19 277.84 347.338 295.076 362.994C315.729 381.764 343.071 394.625 371.485 393.374C432.2 390.739 462.687 324.694 435.68 273.692Z" fill="#92E3A9"/>
<path opacity="0.7" d="M435.68 273.692C424.76 253.059 419.64 233.087 425.649 210.235C432.015 186.156 444.267 160.557 440.454 135.093C434.705 97.2095 407.29 59.0074 371.941 36.0689C337.876 14.0009 296.433 6.01963 259.875 26.1506C229.758 42.7506 210.807 77.6426 174.287 82.5466C131.634 88.3333 114.361 58.5415 67.1064 77.9981C48.5254 85.6484 32.56 99.5512 25.1572 118.456C16.8661 139.862 24.0221 155.861 32.8685 175.808C42.3882 197.454 46.8672 220.957 45.9715 244.563C45.1942 265.478 36.6439 285.021 36.6069 305.863C36.5329 342.643 59.0991 379.202 95.8293 389.231C141.887 401.809 186.81 333.153 237.482 328.58C263.91 326.19 277.84 347.338 295.076 362.994C315.729 381.764 343.071 394.625 371.485 393.374C432.2 390.739 462.687 324.694 435.68 273.692Z" fill="white"/>
<path d="M379.275 107.19L118.266 123.962C112.738 124.317 108.546 129.058 108.904 134.551L118.718 285.353C119.075 290.847 123.847 295.012 129.375 294.657L390.383 277.885C395.911 277.529 400.103 272.788 399.746 267.295L389.932 116.493C389.574 111 384.803 106.834 379.275 107.19Z" fill="#92E3A9" stroke="#263238" stroke-linecap="round" stroke-linejoin="round"/>
<path d="M380.664 107.116L116.878 124.047C115.744 124.119 114.636 124.412 113.616 124.91C112.596 125.408 111.686 126.101 110.936 126.95C110.186 127.798 109.613 128.785 109.248 129.855C108.883 130.924 108.734 132.054 108.809 133.181L111.684 177.317L392.719 159.27L389.844 115.134C389.772 114.008 389.477 112.908 388.976 111.895C388.476 110.883 387.779 109.979 386.927 109.234C386.074 108.489 385.082 107.919 384.008 107.555C382.933 107.192 381.797 107.043 380.664 107.116Z" fill="#263238" stroke="#263238" stroke-linecap="round" stroke-linejoin="round"/>
<path d="M217.112 252.041C168.87 276.708 137.384 282.201 118.482 281.968L118.79 286.737C118.863 287.864 119.158 288.965 119.659 289.978C120.16 290.992 120.858 291.897 121.712 292.641C122.566 293.386 123.559 293.956 124.635 294.319C125.711 294.682 126.848 294.83 127.982 294.755L391.756 277.812C392.89 277.74 393.999 277.447 395.018 276.949C396.038 276.45 396.949 275.757 397.698 274.909C398.448 274.06 399.022 273.073 399.387 272.004C399.752 270.935 399.901 269.805 399.825 268.678L394.261 183.066C318.617 184.476 297.186 211.093 217.112 252.041Z" fill="#263238" stroke="#263238" stroke-linecap="round" stroke-linejoin="round"/>
<path d="M162.633 162.903L140.126 164.35C138.038 164.484 136.456 166.274 136.591 168.349L137.981 189.722C138.116 191.796 139.918 193.369 142.006 193.235L164.513 191.789C166.6 191.655 168.183 189.864 168.048 187.79L166.657 166.416C166.522 164.342 164.72 162.769 162.633 162.903Z" fill="white" stroke="#263238" stroke-linecap="round" stroke-linejoin="round"/>
<path d="M154.835 173.405L149.208 173.767C148.188 173.832 147.415 174.707 147.481 175.72L147.825 181.006C147.891 182.019 148.771 182.788 149.791 182.722L155.418 182.361C156.438 182.295 157.211 181.42 157.145 180.407L156.801 175.122C156.735 174.108 155.855 173.339 154.835 173.405Z" fill="white" stroke="#263238" stroke-linecap="round" stroke-linejoin="round"/>
<path d="M136.545 167.827L145.354 167.263C145.762 167.237 146.172 167.291 146.56 167.422C146.947 167.553 147.305 167.759 147.612 168.028C147.919 168.296 148.17 168.623 148.35 168.988C148.53 169.354 148.635 169.751 148.661 170.157L148.907 173.835" stroke="#263238" stroke-linecap="round" stroke-linejoin="round"/>
<path d="M166.612 165.902L157.914 166.454C157.09 166.508 156.321 166.884 155.775 167.499C155.23 168.115 154.952 168.921 155.002 169.74L155.249 173.418" stroke="#263238" stroke-linecap="round" stroke-linejoin="round"/>
<path d="M138.025 190.484L146.835 189.92C147.242 189.893 147.64 189.787 148.007 189.608C148.373 189.428 148.7 189.179 148.969 188.874C149.239 188.569 149.445 188.214 149.576 187.829C149.707 187.445 149.761 187.039 149.734 186.634L149.5 182.956" stroke="#263238" stroke-linecap="round" stroke-linejoin="round"/>
<path d="M168.093 188.559L159.456 189.111C159.048 189.139 158.638 189.087 158.25 188.957C157.861 188.828 157.503 188.623 157.195 188.355C156.886 188.088 156.634 187.762 156.453 187.397C156.271 187.032 156.164 186.636 156.138 186.23L155.903 182.552" stroke="#263238" stroke-linecap="round" stroke-linejoin="round"/>
<path d="M137.371 179.732L147.686 179.07" stroke="#263238" stroke-linecap="round" stroke-linejoin="round"/>
<path d="M156.754 178.493L167.081 177.831" stroke="#263238" stroke-linecap="round" stroke-linejoin="round"/>
<path d="M266.649 147.819C265.866 147.419 265.221 146.796 264.798 146.029C264.313 145.138 264.039 144.148 263.996 143.136C263.916 142.132 264.059 141.123 264.416 140.181C264.734 139.362 265.293 138.657 266.02 138.158C266.798 137.657 267.696 137.369 268.623 137.324C269.284 137.28 269.948 137.351 270.585 137.533C271.185 137.7 271.747 137.984 272.238 138.366C272.317 138.428 272.382 138.506 272.429 138.595C272.476 138.684 272.503 138.781 272.509 138.881C272.528 139.016 272.493 139.153 272.411 139.261C272.385 139.313 272.347 139.357 272.299 139.389C272.252 139.421 272.197 139.441 272.139 139.445C271.977 139.446 271.818 139.399 271.683 139.311C271.231 138.984 270.732 138.727 270.202 138.55C269.723 138.406 269.221 138.352 268.722 138.391C268.206 138.396 267.698 138.519 267.238 138.751C266.778 138.983 266.378 139.317 266.069 139.727C265.433 140.712 265.166 141.889 265.316 143.05C265.334 144.235 265.771 145.377 266.55 146.274C266.914 146.638 267.356 146.915 267.844 147.083C268.331 147.251 268.851 147.305 269.363 147.243C269.86 147.217 270.349 147.105 270.807 146.912C271.307 146.665 271.768 146.347 272.176 145.968C272.296 145.859 272.447 145.791 272.608 145.772C272.665 145.767 272.722 145.777 272.774 145.801C272.826 145.824 272.871 145.861 272.904 145.906C272.954 145.954 272.993 146.011 273.018 146.074C273.044 146.138 273.056 146.206 273.052 146.274C273.061 146.376 273.046 146.478 273.01 146.574C272.974 146.669 272.917 146.755 272.843 146.826C272.409 147.264 271.894 147.614 271.325 147.856C270.716 148.12 270.064 148.274 269.4 148.309C268.455 148.413 267.499 148.242 266.649 147.819Z" fill="white"/>
<path d="M283.453 146.85C283.461 146.923 283.452 146.996 283.426 147.064C283.4 147.132 283.359 147.193 283.305 147.243C283.196 147.341 283.057 147.401 282.91 147.414C282.798 147.425 282.685 147.406 282.583 147.358C282.481 147.311 282.394 147.237 282.331 147.145L280.073 144.043C279.843 143.709 279.539 143.432 279.184 143.234C278.792 143.081 278.369 143.027 277.951 143.074L276.026 143.197L276.285 147.181C276.301 147.348 276.252 147.515 276.149 147.647C276.034 147.771 275.875 147.847 275.705 147.858C275.535 147.87 275.367 147.816 275.236 147.709C275.115 147.588 275.044 147.425 275.039 147.255L274.422 137.692C274.413 137.61 274.422 137.528 274.448 137.45C274.473 137.372 274.515 137.3 274.57 137.238C274.629 137.177 274.699 137.127 274.778 137.094C274.856 137.06 274.941 137.042 275.026 137.042L278.827 136.797C279.782 136.671 280.752 136.884 281.566 137.398C281.903 137.664 282.176 138.004 282.362 138.39C282.548 138.777 282.642 139.201 282.639 139.629C282.724 140.38 282.507 141.134 282.034 141.726C281.497 142.315 280.767 142.697 279.974 142.805C280.234 142.875 280.477 142.996 280.69 143.16C280.937 143.373 281.157 143.616 281.344 143.883L283.268 146.519C283.364 146.607 283.429 146.723 283.453 146.85ZM279.098 141.946C279.77 141.948 280.422 141.723 280.949 141.309C281.152 141.095 281.305 140.839 281.394 140.559C281.484 140.278 281.509 139.982 281.467 139.69C281.47 139.404 281.407 139.12 281.283 138.861C281.159 138.601 280.977 138.374 280.751 138.195C280.177 137.852 279.501 137.718 278.839 137.815L275.742 138.011L276.001 142.142L279.098 141.946Z" fill="white"/>
<path d="M285.81 146.961C285.746 146.908 285.694 146.843 285.658 146.769C285.622 146.695 285.602 146.614 285.6 146.532L284.983 137.018C284.973 136.936 284.981 136.853 285.007 136.775C285.032 136.696 285.075 136.624 285.131 136.564C285.19 136.502 285.261 136.453 285.339 136.419C285.418 136.386 285.502 136.368 285.588 136.368L291.325 136C291.478 135.981 291.632 136.02 291.757 136.111C291.814 136.154 291.86 136.209 291.892 136.273C291.924 136.337 291.941 136.407 291.942 136.478C291.947 136.55 291.938 136.621 291.914 136.688C291.891 136.756 291.854 136.818 291.806 136.871C291.691 136.974 291.542 137.031 291.387 137.03L286.254 137.361L286.501 141.039L291.325 140.733C291.401 140.722 291.478 140.726 291.552 140.745C291.626 140.764 291.696 140.797 291.757 140.843C291.813 140.887 291.858 140.943 291.89 141.007C291.922 141.07 291.94 141.14 291.942 141.211C291.95 141.281 291.944 141.352 291.922 141.42C291.901 141.488 291.866 141.55 291.818 141.603C291.701 141.711 291.547 141.772 291.387 141.775L286.562 142.081L286.822 145.98L291.954 145.649C292.105 145.63 292.258 145.664 292.386 145.747C292.443 145.793 292.49 145.85 292.522 145.916C292.554 145.982 292.571 146.054 292.571 146.127C292.58 146.198 292.573 146.271 292.55 146.339C292.526 146.407 292.487 146.469 292.435 146.519C292.323 146.628 292.173 146.69 292.016 146.691L286.291 147.059C286.208 147.075 286.123 147.075 286.04 147.058C285.958 147.041 285.879 147.008 285.81 146.961Z" fill="white"/>
<path d="M294.73 146.397C294.667 146.341 294.616 146.273 294.58 146.197C294.544 146.121 294.524 146.039 294.52 145.955L293.904 136.442C293.895 136.36 293.904 136.277 293.929 136.199C293.955 136.121 293.996 136.049 294.052 135.988C294.11 135.926 294.181 135.877 294.26 135.843C294.338 135.81 294.423 135.792 294.508 135.792L297.494 135.596C298.219 135.469 298.963 135.505 299.672 135.701C300.382 135.897 301.038 136.249 301.592 136.73C302.147 137.21 302.587 137.808 302.879 138.48C303.171 139.151 303.308 139.879 303.28 140.61C303.373 141.332 303.317 142.065 303.115 142.765C302.914 143.465 302.571 144.116 302.108 144.68C301.601 145.202 300.993 145.617 300.321 145.901C299.65 146.186 298.927 146.333 298.197 146.335L295.211 146.532C295.04 146.549 294.867 146.501 294.73 146.397ZM301.973 140.696C301.783 137.827 300.291 136.487 297.494 136.675L295.187 136.822L295.754 145.404L298.049 145.257C300.846 145.093 302.154 143.573 301.973 140.696Z" fill="white"/>
<path d="M306.057 145.735C305.994 145.676 305.945 145.606 305.911 145.528C305.877 145.45 305.859 145.366 305.859 145.281L305.23 135.669C305.212 135.499 305.261 135.328 305.366 135.191C305.424 135.128 305.494 135.076 305.572 135.041C305.651 135.005 305.736 134.985 305.822 134.983C305.906 134.974 305.991 134.983 306.072 135.008C306.153 135.033 306.227 135.075 306.291 135.13C306.414 135.249 306.485 135.412 306.488 135.583L307.118 145.195C307.127 145.281 307.119 145.367 307.094 145.45C307.068 145.532 307.026 145.608 306.97 145.673C306.915 145.738 306.847 145.79 306.77 145.826C306.694 145.861 306.61 145.881 306.525 145.882C306.441 145.891 306.356 145.883 306.275 145.858C306.194 145.832 306.12 145.791 306.057 145.735Z" fill="white"/>
<path d="M312.633 145.318C312.506 145.2 312.431 145.037 312.423 144.864L311.831 135.755L308.537 135.963C308.38 135.983 308.221 135.944 308.092 135.853C308.039 135.805 307.996 135.746 307.967 135.681C307.937 135.615 307.921 135.545 307.92 135.473C307.907 135.399 307.912 135.323 307.934 135.251C307.955 135.179 307.992 135.112 308.043 135.056C308.158 134.953 308.307 134.896 308.462 134.897L316.334 134.394C316.487 134.375 316.641 134.414 316.766 134.505C316.868 134.61 316.926 134.75 316.926 134.897C316.926 135.043 316.868 135.184 316.766 135.289C316.654 135.398 316.503 135.46 316.346 135.461L313.052 135.669L313.644 144.778C313.662 144.949 313.614 145.12 313.509 145.257C313.378 145.363 313.215 145.421 313.046 145.421C312.877 145.421 312.714 145.363 312.583 145.257L312.633 145.318Z" fill="white"/>
<path d="M324.835 144.08C324.052 143.68 323.407 143.057 322.984 142.29C322.529 141.39 322.26 140.409 322.195 139.404C322.129 138.4 322.267 137.392 322.602 136.442C322.925 135.629 323.483 134.929 324.206 134.431C324.983 133.919 325.889 133.63 326.821 133.597C327.478 133.55 328.137 133.616 328.771 133.794C329.37 133.965 329.931 134.248 330.424 134.627C330.506 134.69 330.573 134.77 330.622 134.861C330.671 134.952 330.7 135.052 330.708 135.154C330.72 135.289 330.685 135.423 330.609 135.534C330.58 135.584 330.539 135.626 330.489 135.656C330.44 135.686 330.383 135.703 330.325 135.706C330.163 135.705 330.005 135.658 329.869 135.571C329.421 135.245 328.926 134.988 328.401 134.811C327.92 134.672 327.418 134.623 326.92 134.664C326.403 134.666 325.894 134.786 325.432 135.016C324.969 135.246 324.567 135.578 324.255 135.988C323.617 136.972 323.355 138.151 323.515 139.311C323.512 140.487 323.922 141.627 324.675 142.535C325.031 142.894 325.465 143.168 325.944 143.336C326.423 143.504 326.934 143.561 327.438 143.503C327.936 143.483 328.426 143.371 328.882 143.172C329.382 142.926 329.843 142.608 330.251 142.228C330.372 142.122 330.523 142.054 330.683 142.032C330.742 142.029 330.8 142.039 330.854 142.063C330.907 142.086 330.955 142.122 330.992 142.167C331.08 142.271 331.132 142.4 331.14 142.535C331.146 142.636 331.13 142.738 331.094 142.833C331.058 142.928 331.002 143.014 330.93 143.087C330.491 143.527 329.972 143.881 329.4 144.129C328.789 144.389 328.138 144.542 327.475 144.582C326.566 144.65 325.655 144.476 324.835 144.08Z" fill="white"/>
<path d="M342.392 143.038C342.4 143.11 342.391 143.183 342.365 143.251C342.339 143.319 342.298 143.38 342.244 143.43C342.135 143.539 341.991 143.604 341.837 143.614C341.719 143.626 341.6 143.6 341.498 143.541C341.396 143.481 341.316 143.391 341.269 143.283L340.035 140.831L334.249 141.211L333.311 143.749C333.279 143.861 333.211 143.96 333.118 144.031C333.024 144.101 332.91 144.14 332.793 144.141C332.716 144.15 332.637 144.142 332.563 144.119C332.488 144.096 332.42 144.057 332.361 144.006C332.3 143.965 332.25 143.91 332.213 143.846C332.177 143.783 332.156 143.711 332.151 143.638C332.132 143.558 332.132 143.474 332.151 143.393L335.914 133.413C335.957 133.279 336.044 133.162 336.161 133.082C336.279 133.004 336.415 132.957 336.556 132.948C336.701 132.937 336.847 132.966 336.976 133.033C337.103 133.099 337.206 133.201 337.272 133.328L342.293 142.731C342.35 142.824 342.384 142.929 342.392 143.038ZM334.631 140.193L339.493 139.874L336.704 134.566L334.631 140.193Z" fill="white"/>
<path d="M352.521 142.424C352.528 142.495 352.518 142.566 352.493 142.632C352.467 142.698 352.426 142.757 352.373 142.805C352.264 142.903 352.125 142.963 351.979 142.976C351.868 142.986 351.757 142.966 351.658 142.919C351.558 142.871 351.473 142.798 351.411 142.706L349.141 139.605C348.918 139.272 348.618 138.999 348.265 138.808C347.875 138.647 347.45 138.588 347.031 138.636L345.094 138.759L345.353 142.743C345.365 142.826 345.359 142.91 345.336 142.991C345.312 143.071 345.272 143.146 345.217 143.209C345.166 143.274 345.101 143.327 345.026 143.363C344.951 143.399 344.869 143.418 344.785 143.418C344.701 143.429 344.616 143.421 344.535 143.396C344.454 143.37 344.379 143.328 344.317 143.27C344.254 143.212 344.205 143.142 344.171 143.064C344.137 142.986 344.119 142.902 344.119 142.817L343.49 133.254C343.481 133.172 343.49 133.09 343.516 133.012C343.541 132.934 343.583 132.862 343.638 132.8C343.697 132.739 343.767 132.689 343.846 132.656C343.924 132.622 344.009 132.604 344.095 132.604L347.895 132.359C348.85 132.229 349.821 132.442 350.634 132.96C351.237 133.496 351.619 134.235 351.705 135.034C351.792 135.833 351.577 136.636 351.103 137.288C350.568 137.883 349.838 138.27 349.042 138.379C349.304 138.437 349.549 138.555 349.758 138.722C350.013 138.931 350.237 139.174 350.424 139.445L352.349 142.081C352.443 142.173 352.504 142.294 352.521 142.424ZM348.178 137.52C348.847 137.525 349.496 137.3 350.017 136.883C350.221 136.67 350.374 136.414 350.464 136.133C350.554 135.853 350.578 135.556 350.535 135.265C350.54 134.979 350.48 134.695 350.358 134.436C350.236 134.177 350.056 133.948 349.832 133.769C349.251 133.431 348.573 133.297 347.907 133.389L344.81 133.585L345.082 137.717L348.178 137.52Z" fill="white"/>
<path d="M354.878 142.535C354.817 142.478 354.768 142.41 354.734 142.334C354.7 142.258 354.682 142.177 354.681 142.094L354.064 132.58C354.055 132.498 354.064 132.416 354.089 132.337C354.115 132.259 354.157 132.187 354.212 132.126C354.27 132.063 354.34 132.013 354.419 131.979C354.498 131.945 354.583 131.929 354.668 131.93L357.654 131.734C358.393 131.634 359.144 131.687 359.861 131.889C360.578 132.09 361.246 132.436 361.823 132.906C362.399 133.375 362.873 133.957 363.213 134.616C363.553 135.275 363.754 135.996 363.801 136.735C363.849 137.474 363.743 138.215 363.489 138.912C363.236 139.608 362.841 140.246 362.33 140.784C361.818 141.322 361.2 141.75 360.514 142.041C359.829 142.332 359.09 142.479 358.345 142.474L355.359 142.67C355.187 142.687 355.015 142.639 354.878 142.535ZM362.12 136.834C361.935 133.965 360.442 132.629 357.642 132.8L355.347 132.96L355.902 141.542L358.209 141.382C361.01 141.235 362.306 139.703 362.12 136.834Z" fill="white"/>
<path d="M139.901 234.289C138.976 232.918 138.483 231.305 138.482 229.654C138.268 228.009 138.547 226.338 139.284 224.849C139.632 224.324 140.097 223.886 140.643 223.57C141.19 223.254 141.803 223.068 142.434 223.026C143.065 222.984 143.697 223.089 144.28 223.33C144.864 223.572 145.384 223.945 145.798 224.419C146.632 225.839 147.122 227.433 147.229 229.073C147.336 230.714 147.058 232.357 146.415 233.872C146.068 234.398 145.602 234.837 145.055 235.153C144.508 235.47 143.894 235.656 143.263 235.696C142.631 235.737 141.998 235.63 141.415 235.386C140.831 235.142 140.313 234.766 139.901 234.289ZM145.305 233.063C146.071 230.49 145.892 227.731 144.799 225.278C144.546 224.916 144.203 224.625 143.803 224.435C143.404 224.244 142.961 224.159 142.519 224.189C142.076 224.218 141.649 224.361 141.279 224.604C140.909 224.846 140.608 225.18 140.406 225.572C139.624 228.138 139.804 230.9 140.912 233.345C141.144 233.726 141.481 234.033 141.884 234.229C142.287 234.424 142.737 234.5 143.183 234.448C143.63 234.447 144.068 234.319 144.446 234.081C144.824 233.842 145.126 233.502 145.317 233.1L145.305 233.063Z" fill="white" stroke="#263238" stroke-width="0.25" stroke-linecap="round" stroke-linejoin="round"/>
<path d="M152.313 233.504C151.479 232.084 150.989 230.491 150.882 228.85C150.775 227.21 151.053 225.567 151.696 224.052C152.042 223.525 152.507 223.085 153.053 222.767C153.6 222.45 154.213 222.263 154.845 222.221C155.477 222.179 156.11 222.284 156.694 222.528C157.278 222.771 157.797 223.146 158.21 223.623C159.138 224.997 159.632 226.614 159.629 228.269C159.843 229.915 159.564 231.586 158.827 233.075C158.479 233.6 158.014 234.037 157.467 234.354C156.921 234.67 156.308 234.856 155.677 234.898C155.046 234.939 154.414 234.835 153.83 234.593C153.247 234.352 152.727 233.979 152.313 233.504ZM157.704 232.278C158.182 231.024 158.339 229.672 158.161 228.343C158.161 227.002 157.835 225.681 157.211 224.493C156.954 224.135 156.61 223.847 156.209 223.659C155.809 223.471 155.367 223.387 154.926 223.417C154.484 223.446 154.057 223.588 153.686 223.828C153.315 224.067 153.012 224.398 152.806 224.787C152.335 226.043 152.178 227.394 152.35 228.723C152.359 230.06 152.689 231.375 153.312 232.56C153.562 232.926 153.903 233.22 154.303 233.414C154.702 233.608 155.146 233.695 155.589 233.667C156.033 233.638 156.462 233.495 156.832 233.252C157.203 233.008 157.504 232.672 157.704 232.278Z" fill="white" stroke="#263238" stroke-width="0.25" stroke-linecap="round" stroke-linejoin="round"/>
<path d="M164.7 232.707C163.872 231.285 163.386 229.692 163.281 228.052C163.176 226.412 163.455 224.77 164.095 223.255C164.442 222.728 164.906 222.288 165.453 221.971C166 221.653 166.613 221.466 167.245 221.424C167.877 221.383 168.51 221.488 169.094 221.731C169.678 221.974 170.197 222.349 170.61 222.826C171.437 224.248 171.922 225.841 172.029 227.48C172.136 229.12 171.862 230.761 171.227 232.278C170.881 232.807 170.416 233.249 169.868 233.568C169.32 233.887 168.705 234.075 168.072 234.117C167.438 234.159 166.803 234.053 166.218 233.808C165.633 233.563 165.113 233.187 164.7 232.707ZM170.104 231.481C170.883 228.915 170.708 226.157 169.611 223.708C169.357 223.346 169.014 223.056 168.614 222.864C168.214 222.672 167.771 222.587 167.328 222.615C166.885 222.643 166.457 222.785 166.085 223.026C165.713 223.267 165.411 223.599 165.206 223.99C164.734 225.246 164.578 226.597 164.749 227.926C164.747 229.264 165.078 230.582 165.712 231.763C165.959 232.132 166.3 232.429 166.7 232.626C167.1 232.822 167.545 232.91 167.99 232.882C168.435 232.853 168.865 232.709 169.236 232.463C169.607 232.217 169.906 231.879 170.104 231.481Z" fill="white" stroke="#263238" stroke-width="0.25" stroke-linecap="round" stroke-linejoin="round"/>
<path d="M177.1 231.91C176.273 230.488 175.787 228.895 175.68 227.256C175.573 225.616 175.848 223.975 176.483 222.458C176.832 221.933 177.299 221.495 177.846 221.179C178.394 220.863 179.007 220.677 179.639 220.635C180.271 220.594 180.904 220.698 181.489 220.939C182.073 221.181 182.594 221.554 183.01 222.029C183.93 223.406 184.423 225.022 184.429 226.675C184.646 228.322 184.363 229.996 183.614 231.481C183.27 232.01 182.806 232.452 182.259 232.771C181.712 233.09 181.098 233.278 180.465 233.32C179.833 233.362 179.199 233.256 178.615 233.011C178.03 232.766 177.512 232.389 177.1 231.91ZM182.504 230.684C183.292 228.118 183.112 225.355 181.998 222.911C181.765 222.529 181.425 222.223 181.02 222.029C180.615 221.835 180.161 221.763 179.715 221.82C179.269 221.828 178.835 221.962 178.461 222.205C178.088 222.448 177.791 222.79 177.606 223.193C177.134 224.449 176.977 225.8 177.149 227.129C177.147 228.467 177.478 229.785 178.111 230.966C178.359 231.335 178.7 231.632 179.1 231.829C179.5 232.025 179.944 232.113 180.39 232.085C180.835 232.056 181.264 231.912 181.635 231.666C182.007 231.42 182.306 231.081 182.504 230.684Z" fill="white" stroke="#263238" stroke-width="0.25" stroke-linecap="round" stroke-linejoin="round"/>
<path d="M202.183 230.292C201.349 228.872 200.859 227.279 200.752 225.638C200.645 223.998 200.923 222.355 201.566 220.84C201.913 220.314 202.379 219.875 202.926 219.558C203.473 219.242 204.087 219.056 204.718 219.015C205.35 218.975 205.983 219.081 206.566 219.325C207.15 219.57 207.668 219.945 208.08 220.423C209.008 221.797 209.502 223.415 209.499 225.069C209.712 226.715 209.433 228.386 208.697 229.875C208.35 230.401 207.885 230.84 207.337 231.157C206.79 231.473 206.177 231.659 205.545 231.699C204.913 231.74 204.28 231.634 203.697 231.39C203.113 231.145 202.595 230.77 202.183 230.292ZM207.575 229.066C208.353 226.496 208.177 223.734 207.081 221.281C206.826 220.919 206.482 220.629 206.082 220.439C205.681 220.248 205.238 220.164 204.795 220.193C204.352 220.223 203.924 220.366 203.553 220.608C203.182 220.85 202.88 221.183 202.676 221.575C202.205 222.827 202.049 224.173 202.22 225.498C202.23 226.839 202.56 228.158 203.182 229.348C203.432 229.714 203.774 230.008 204.173 230.202C204.572 230.396 205.016 230.483 205.459 230.455C205.903 230.426 206.332 230.283 206.703 230.039C207.074 229.796 207.374 229.46 207.575 229.066Z" fill="white" stroke="#263238" stroke-width="0.25" stroke-linecap="round" stroke-linejoin="round"/>
<path d="M214.57 229.495C213.744 228.075 213.258 226.484 213.151 224.847C213.044 223.209 213.319 221.57 213.953 220.055C214.299 219.526 214.765 219.084 215.312 218.765C215.86 218.446 216.475 218.258 217.109 218.216C217.742 218.174 218.377 218.28 218.962 218.525C219.547 218.77 220.067 219.147 220.48 219.626C221.408 221 221.902 222.618 221.899 224.272C222.112 225.918 221.834 227.589 221.097 229.078C220.749 229.604 220.282 230.043 219.734 230.36C219.185 230.676 218.571 230.862 217.938 230.902C217.305 230.943 216.672 230.837 216.088 230.593C215.503 230.348 214.984 229.973 214.57 229.495ZM219.974 228.269C220.752 225.699 220.577 222.937 219.481 220.484C219.226 220.122 218.882 219.832 218.482 219.642C218.081 219.451 217.638 219.367 217.195 219.396C216.752 219.426 216.324 219.569 215.953 219.811C215.582 220.053 215.28 220.386 215.076 220.778C214.294 223.345 214.474 226.106 215.582 228.551C215.832 228.917 216.173 229.211 216.573 229.405C216.972 229.599 217.416 229.686 217.859 229.658C218.303 229.629 218.731 229.486 219.102 229.243C219.473 228.999 219.774 228.663 219.974 228.269Z" fill="white" stroke="#263238" stroke-width="0.25" stroke-linecap="round" stroke-linejoin="round"/>
<path d="M226.97 228.698C226.046 227.327 225.552 225.714 225.551 224.064C225.338 222.419 225.617 220.747 226.353 219.258C226.698 218.729 227.162 218.287 227.708 217.968C228.255 217.649 228.869 217.461 229.502 217.419C230.135 217.378 230.768 217.483 231.353 217.728C231.937 217.973 232.456 218.35 232.868 218.829C233.702 220.249 234.191 221.842 234.299 223.483C234.406 225.123 234.127 226.766 233.484 228.281C233.137 228.807 232.672 229.246 232.125 229.563C231.577 229.879 230.964 230.065 230.332 230.106C229.7 230.146 229.067 230.04 228.484 229.796C227.901 229.551 227.382 229.176 226.97 228.698ZM232.374 227.472C233.157 224.902 232.977 222.136 231.868 219.687C231.615 219.325 231.272 219.035 230.873 218.844C230.473 218.653 230.03 218.568 229.588 218.598C229.146 218.628 228.719 218.771 228.348 219.013C227.978 219.256 227.678 219.589 227.476 219.981C226.694 222.548 226.873 225.309 227.982 227.754C228.213 228.136 228.551 228.442 228.953 228.638C229.356 228.834 229.807 228.91 230.252 228.858C230.708 228.867 231.158 228.745 231.545 228.505C231.933 228.266 232.242 227.92 232.436 227.509L232.374 227.472Z" fill="white" stroke="#263238" stroke-width="0.25" stroke-linecap="round" stroke-linejoin="round"/>
<path d="M239.37 227.901C238.44 226.533 237.946 224.918 237.951 223.267C237.731 221.621 238.01 219.948 238.753 218.461C239.101 217.936 239.566 217.499 240.112 217.182C240.659 216.866 241.272 216.68 241.903 216.639C242.534 216.597 243.166 216.701 243.75 216.943C244.333 217.185 244.853 217.557 245.267 218.032C246.201 219.403 246.695 221.023 246.686 222.679C246.906 224.324 246.627 225.998 245.884 227.484C245.537 228.011 245.071 228.449 244.524 228.766C243.977 229.082 243.363 229.268 242.732 229.309C242.1 229.349 241.467 229.243 240.884 228.999C240.3 228.754 239.782 228.379 239.37 227.901ZM244.761 226.675C245.239 225.421 245.396 224.069 245.218 222.74C245.218 221.399 244.892 220.079 244.268 218.89C244.013 218.529 243.669 218.239 243.269 218.048C242.868 217.857 242.425 217.773 241.982 217.802C241.539 217.832 241.111 217.975 240.74 218.217C240.369 218.459 240.067 218.792 239.863 219.184C239.397 220.437 239.245 221.783 239.419 223.108C239.415 224.45 239.746 225.773 240.381 226.957C240.63 227.323 240.97 227.618 241.368 227.812C241.767 228.007 242.21 228.094 242.653 228.065C243.096 228.037 243.524 227.893 243.893 227.65C244.263 227.406 244.563 227.07 244.761 226.675Z" fill="white" stroke="#263238" stroke-width="0.25" stroke-linecap="round" stroke-linejoin="round"/>
<path d="M264.44 226.295C263.515 224.92 263.021 223.303 263.022 221.649C262.809 220.003 263.088 218.332 263.823 216.843C264.173 216.318 264.639 215.88 265.187 215.564C265.734 215.248 266.348 215.062 266.98 215.02C267.612 214.979 268.245 215.083 268.829 215.324C269.414 215.566 269.935 215.939 270.35 216.414C271.27 217.796 271.764 219.415 271.769 221.072C271.985 222.719 271.701 224.393 270.955 225.878C270.634 226.427 270.175 226.883 269.624 227.203C269.072 227.523 268.447 227.696 267.809 227.705C267.172 227.78 266.528 227.689 265.937 227.442C265.347 227.195 264.831 226.8 264.44 226.295ZM269.844 225.069C270.314 223.813 270.471 222.463 270.301 221.134C270.297 219.794 269.971 218.474 269.351 217.284C269.11 216.906 268.767 216.603 268.361 216.411C267.956 216.218 267.503 216.142 267.056 216.193C266.608 216.201 266.172 216.335 265.798 216.581C265.425 216.826 265.129 217.172 264.946 217.578C264.164 220.145 264.344 222.906 265.452 225.351C265.702 225.717 266.043 226.011 266.443 226.205C266.842 226.399 267.286 226.486 267.729 226.458C268.173 226.429 268.602 226.286 268.972 226.043C269.343 225.799 269.644 225.464 269.844 225.069Z" fill="white" stroke="#263238" stroke-width="0.25" stroke-linecap="round" stroke-linejoin="round"/>
<path d="M276.853 225.498C275.927 224.123 275.433 222.506 275.434 220.852C275.221 219.206 275.5 217.535 276.236 216.046C276.583 215.521 277.049 215.083 277.595 214.767C278.142 214.451 278.755 214.265 279.386 214.223C280.017 214.182 280.649 214.286 281.232 214.528C281.816 214.769 282.336 215.142 282.75 215.617C283.584 217.039 284.074 218.634 284.181 220.277C284.288 221.919 284.01 223.564 283.367 225.081C283.02 225.608 282.554 226.046 282.007 226.363C281.46 226.679 280.846 226.865 280.214 226.906C279.583 226.946 278.95 226.84 278.367 226.596C277.783 226.351 277.265 225.976 276.853 225.498ZM282.257 224.272C282.727 223.017 282.88 221.665 282.701 220.337C282.703 218.996 282.377 217.675 281.751 216.487C281.498 216.125 281.155 215.835 280.755 215.644C280.356 215.453 279.913 215.368 279.471 215.398C279.028 215.428 278.601 215.571 278.231 215.813C277.861 216.056 277.56 216.389 277.358 216.781C276.859 218.038 276.685 219.4 276.853 220.741C276.85 222.084 277.181 223.406 277.815 224.591C278.065 224.957 278.406 225.251 278.806 225.445C279.205 225.639 279.648 225.726 280.092 225.698C280.536 225.669 280.964 225.526 281.335 225.282C281.706 225.039 282.007 224.703 282.207 224.309L282.257 224.272Z" fill="white" stroke="#263238" stroke-width="0.25" stroke-linecap="round" stroke-linejoin="round"/>
<path d="M289.19 224.701C288.356 223.282 287.866 221.688 287.759 220.048C287.652 218.407 287.931 216.764 288.573 215.249C288.895 214.701 289.353 214.244 289.905 213.924C290.456 213.604 291.081 213.431 291.72 213.422C292.355 213.346 292.999 213.435 293.589 213.68C294.18 213.925 294.696 214.318 295.088 214.82C295.915 216.245 296.401 217.839 296.508 219.481C296.615 221.122 296.34 222.766 295.705 224.285C295.358 224.811 294.892 225.249 294.345 225.566C293.798 225.882 293.184 226.068 292.552 226.109C291.921 226.149 291.288 226.043 290.704 225.799C290.121 225.555 289.603 225.179 289.19 224.701ZM294.582 223.475C295.058 222.221 295.215 220.869 295.039 219.54C295.041 218.199 294.715 216.878 294.089 215.69C293.834 215.329 293.49 215.039 293.089 214.848C292.689 214.658 292.246 214.573 291.803 214.603C291.36 214.632 290.932 214.775 290.561 215.017C290.189 215.259 289.887 215.592 289.684 215.985C289.213 217.236 289.056 218.583 289.227 219.908C289.238 221.249 289.567 222.568 290.19 223.757C290.44 224.123 290.781 224.417 291.181 224.611C291.58 224.805 292.023 224.892 292.467 224.864C292.911 224.835 293.339 224.692 293.71 224.449C294.081 224.205 294.382 223.87 294.582 223.475Z" fill="white" stroke="#263238" stroke-width="0.25" stroke-linecap="round" stroke-linejoin="round"/>
<path d="M301.627 223.904C300.799 222.482 300.313 220.889 300.208 219.249C300.103 217.609 300.382 215.967 301.023 214.452C301.37 213.926 301.835 213.487 302.382 213.171C302.93 212.854 303.543 212.668 304.175 212.628C304.807 212.587 305.44 212.693 306.023 212.938C306.606 213.182 307.125 213.558 307.537 214.035C308.465 215.409 308.959 217.027 308.956 218.682C309.169 220.327 308.89 221.998 308.154 223.488C307.805 224.014 307.339 224.452 306.791 224.769C306.242 225.086 305.628 225.271 304.995 225.312C304.362 225.352 303.729 225.246 303.144 225.002C302.56 224.758 302.041 224.382 301.627 223.904ZM307.031 222.678C307.809 220.108 307.634 217.346 306.538 214.893C306.283 214.532 305.939 214.242 305.539 214.051C305.138 213.861 304.695 213.776 304.252 213.806C303.809 213.835 303.381 213.978 303.01 214.22C302.639 214.462 302.337 214.795 302.133 215.188C301.351 217.754 301.53 220.515 302.639 222.96C302.889 223.326 303.23 223.62 303.63 223.814C304.029 224.008 304.472 224.095 304.916 224.067C305.36 224.038 305.788 223.895 306.159 223.652C306.53 223.408 306.831 223.073 307.031 222.678Z" fill="white" stroke="#263238" stroke-width="0.25" stroke-linecap="round" stroke-linejoin="round"/>
<path d="M326.71 222.298C325.779 220.926 325.285 219.307 325.291 217.652C325.079 216.006 325.358 214.335 326.093 212.846C326.416 212.296 326.876 211.838 327.43 211.518C327.984 211.198 328.611 211.026 329.252 211.019C329.885 210.945 330.527 211.035 331.115 211.28C331.703 211.525 332.217 211.917 332.608 212.417C333.442 213.839 333.932 215.434 334.039 217.077C334.146 218.72 333.867 220.364 333.225 221.882C332.878 222.408 332.412 222.846 331.865 223.163C331.318 223.48 330.704 223.665 330.072 223.706C329.44 223.746 328.808 223.64 328.224 223.396C327.641 223.152 327.123 222.776 326.71 222.298ZM332.114 221.072C332.881 218.504 332.702 215.748 331.608 213.3C331.355 212.938 331.012 212.647 330.613 212.457C330.213 212.266 329.771 212.181 329.328 212.211C328.886 212.24 328.459 212.383 328.089 212.626C327.719 212.868 327.418 213.202 327.216 213.594C326.738 214.844 326.581 216.192 326.76 217.517C326.758 218.855 327.088 220.174 327.722 221.354C327.953 221.737 328.29 222.045 328.692 222.243C329.095 222.441 329.546 222.52 329.992 222.47C330.44 222.464 330.878 222.332 331.253 222.089C331.629 221.846 331.928 221.502 332.114 221.097V221.072Z" fill="white" stroke="#263238" stroke-width="0.25" stroke-linecap="round" stroke-linejoin="round"/>
<path d="M339.11 221.501C338.276 220.082 337.786 218.488 337.679 216.848C337.572 215.207 337.851 213.564 338.493 212.049C338.814 211.501 339.273 211.044 339.824 210.724C340.376 210.404 341.001 210.231 341.639 210.222C342.275 210.146 342.919 210.235 343.509 210.48C344.099 210.725 344.616 211.118 345.008 211.62C345.835 213.045 346.32 214.639 346.427 216.281C346.534 217.922 346.26 219.566 345.625 221.085C345.277 221.611 344.812 222.049 344.265 222.366C343.718 222.683 343.104 222.868 342.472 222.909C341.84 222.949 341.208 222.843 340.624 222.599C340.041 222.355 339.522 221.979 339.11 221.501ZM344.502 220.275C345.28 217.709 345.105 214.951 344.008 212.503C343.754 212.141 343.41 211.851 343.009 211.66C342.609 211.47 342.165 211.385 341.722 211.415C341.279 211.444 340.852 211.587 340.48 211.829C340.109 212.071 339.807 212.405 339.604 212.797C339.132 214.048 338.975 215.395 339.147 216.72C339.161 218.06 339.491 219.379 340.109 220.57C340.345 220.95 340.685 221.255 341.089 221.451C341.494 221.646 341.945 221.723 342.392 221.673C342.839 221.668 343.275 221.536 343.649 221.293C344.022 221.049 344.318 220.705 344.502 220.3V220.275Z" fill="white" stroke="#263238" stroke-width="0.25" stroke-linecap="round" stroke-linejoin="round"/>
<path d="M351.497 220.741C350.669 219.319 350.183 217.726 350.078 216.086C349.974 214.446 350.252 212.804 350.893 211.289C351.214 210.741 351.673 210.284 352.224 209.964C352.775 209.644 353.401 209.471 354.039 209.462C354.674 209.386 355.318 209.475 355.909 209.72C356.499 209.965 357.015 210.358 357.407 210.86C358.234 212.285 358.72 213.879 358.827 215.521C358.934 217.162 358.659 218.806 358.024 220.325C357.676 220.851 357.209 221.29 356.661 221.606C356.113 221.923 355.498 222.108 354.865 222.149C354.233 222.189 353.599 222.083 353.015 221.839C352.43 221.595 351.911 221.219 351.497 220.741ZM356.901 219.515C357.679 216.945 357.504 214.183 356.408 211.73C356.153 211.369 355.809 211.079 355.409 210.888C355.008 210.698 354.565 210.613 354.122 210.643C353.679 210.672 353.251 210.815 352.88 211.057C352.509 211.299 352.207 211.632 352.003 212.025C351.221 214.591 351.401 217.352 352.509 219.797C352.759 220.163 353.1 220.457 353.5 220.651C353.899 220.845 354.343 220.932 354.786 220.904C355.23 220.875 355.659 220.732 356.029 220.489C356.4 220.245 356.701 219.91 356.901 219.515Z" fill="white" stroke="#263238" stroke-width="0.25" stroke-linecap="round" stroke-linejoin="round"/>
<path d="M363.897 219.908C362.971 218.533 362.477 216.915 362.478 215.261C362.265 213.616 362.544 211.944 363.28 210.455C363.628 209.93 364.093 209.493 364.64 209.177C365.186 208.86 365.799 208.674 366.43 208.633C367.061 208.591 367.693 208.695 368.277 208.937C368.861 209.179 369.38 209.552 369.795 210.026C370.629 211.448 371.119 213.044 371.226 214.686C371.333 216.329 371.054 217.974 370.412 219.491C370.09 220.039 369.632 220.495 369.08 220.816C368.529 221.136 367.904 221.309 367.265 221.318C366.629 221.392 365.984 221.302 365.394 221.055C364.803 220.807 364.288 220.412 363.897 219.908ZM369.301 218.682C370.084 216.111 369.904 213.346 368.795 210.897C368.542 210.535 368.199 210.244 367.8 210.054C367.4 209.863 366.958 209.778 366.515 209.808C366.073 209.837 365.646 209.98 365.276 210.223C364.905 210.465 364.605 210.799 364.403 211.191C363.621 213.757 363.8 216.519 364.909 218.964C365.159 219.329 365.5 219.623 365.9 219.817C366.299 220.012 366.742 220.099 367.186 220.07C367.63 220.042 368.058 219.899 368.429 219.655C368.8 219.412 369.101 219.076 369.301 218.682Z" fill="white" stroke="#263238" stroke-width="0.25" stroke-linecap="round" stroke-linejoin="round"/>
<path d="M360.245 265.515C362.109 265.419 363.934 264.957 365.617 264.154C367.299 263.352 368.804 262.225 370.044 260.84C371.284 259.455 372.236 257.838 372.842 256.085C373.449 254.331 373.699 252.476 373.578 250.625C373.457 248.775 372.968 246.967 372.138 245.306C371.308 243.646 370.154 242.165 368.744 240.951C367.334 239.737 365.695 238.813 363.922 238.233C362.15 237.654 360.279 237.43 358.419 237.574L339.32 238.8C335.589 239.039 332.107 240.741 329.64 243.531C327.172 246.321 325.921 249.971 326.161 253.678C326.402 257.385 328.114 260.845 330.922 263.297C333.73 265.749 337.403 266.992 341.133 266.753L360.245 265.515Z" fill="white"/>
</svg>
