<svg width="596" height="417" viewBox="0 0 596 417" fill="none" xmlns="http://www.w3.org/2000/svg">
<path d="M594.356 292.672C606.803 207.914 546.514 98.4495 484.02 54.8099C371.184 -23.9619 277.444 -3.91086 204.535 29.0301C131.625 61.971 121.21 162.226 70.8675 209.489C20.5254 256.752 -40.2324 329.795 36.1488 387.084C112.53 444.372 206.271 399.974 286.124 392.813C365.977 385.652 471.869 411.431 529.155 382.787C569.151 362.736 588.801 330.139 594.356 292.672Z" fill="#3AD893"/>
<path opacity="0.7" d="M594.356 292.672C606.803 207.914 546.514 98.4495 484.02 54.8099C371.184 -23.9619 277.444 -3.91086 204.535 29.0301C131.625 61.971 121.21 162.226 70.8675 209.489C20.5254 256.752 -40.2324 329.795 36.1488 387.084C112.53 444.372 206.271 399.974 286.124 392.813C365.977 385.652 471.869 411.431 529.155 382.787C569.151 362.736 588.801 330.139 594.356 292.672Z" fill="white"/>
<path d="M81.4047 243.635V265.818C81.4047 265.818 85.2328 299.648 91.4242 332.16L57.4546 398.08L65.2767 398.515C65.2767 398.515 117.655 338.56 119.493 332.16C121.331 325.76 118.263 277.338 118.263 277.338L171.691 307.2L194.729 382.298L202.565 379.315C202.565 379.315 194.577 298.893 192.891 296.96C167.254 267.686 131.157 248.32 131.157 248.32L123.791 235.955L81.4047 243.635Z" fill="#263238" stroke="#263238" stroke-linecap="round" stroke-linejoin="round"/>
<path d="M119.175 278.438L122.533 262.054" stroke="white" stroke-width="0.5" stroke-linecap="round" stroke-linejoin="round"/>
<path d="M120.087 275.046L128.02 258.662" stroke="white" stroke-width="0.5" stroke-linecap="round" stroke-linejoin="round"/>
<path d="M145.751 172.89C145.751 172.89 143.885 182.336 146.58 184.499C149.275 186.662 158.852 188.045 159.944 183.744C161.036 179.443 152.025 136.768 150.933 132.467C149.841 128.166 146.58 130.701 145.488 131.968C144.396 133.235 145.751 172.89 145.751 172.89Z" fill="white" stroke="#263238" stroke-linecap="round" stroke-linejoin="round"/>
<path d="M98.1683 157.235C98.1683 157.235 68.2066 168.422 58.9472 172.237C49.6878 176.051 54.6077 184.614 55.9897 187.597C57.3717 190.579 79.5943 243.917 80.1471 244.877C80.6999 245.837 84.2931 248.154 89.4341 248.141C94.5751 248.128 124.592 241.242 125.67 237.901C126.748 234.56 124.827 229.312 124.827 229.312L109.155 184.896C109.155 184.896 147.354 186.816 149.233 186.56C151.113 186.304 156.033 180.736 150.284 175.45C144.534 170.163 108.52 161.152 106.612 159.642C104.705 158.131 101.444 156.211 98.1683 157.235Z" fill="white" stroke="#263238" stroke-linecap="round" stroke-linejoin="round"/>
<path d="M81.5567 174.771L89.4617 181.363L98.9561 230.451L109.238 237.043L111.214 222.758L91.8664 180.262V172.582C91.8664 170.752 92.6541 166.349 87.5131 164.16C82.3721 161.971 75.2271 165.248 81.5567 174.771Z" fill="#263238"/>
<path d="M144.908 167.322C144.908 167.322 140.001 167.322 138.371 176.678C136.74 186.035 139.186 187.789 141.909 188.288C144.631 188.787 150.905 190.848 154.181 187.789C157.456 184.73 157.733 177.933 155.825 172.634C155.491 171.617 154.943 170.672 154.212 169.853C153.48 169.035 152.581 168.359 151.565 167.864C150.549 167.37 149.438 167.068 148.295 166.975C147.152 166.881 146.001 166.999 144.908 167.322Z" fill="white" stroke="#263238" stroke-linecap="round" stroke-linejoin="round"/>
<path d="M87.3887 157.478L99.6609 171.622L91.2169 167.322L88.2041 174.656L87.3887 157.478Z" fill="white" stroke="#263238" stroke-linecap="round" stroke-linejoin="round"/>
<path d="M89.5723 149.901L87.9415 175.667L76.2084 164.045L73.4858 148.134L89.5723 149.901Z" fill="white" stroke="#263238" stroke-linecap="round" stroke-linejoin="round"/>
<path d="M71.8412 157.222L85.91 169.267L82.3444 179.891L69.3951 166.067L71.8412 157.222Z" fill="white" stroke="#263238" stroke-linecap="round" stroke-linejoin="round"/>
<path d="M198.101 236.838C179.234 236.901 160.78 231.73 145.115 221.99C135.317 216.017 126.97 208.219 120.605 199.093C114.24 189.967 109.997 179.714 108.146 168.986C100.684 124.941 135.565 83.1616 186.008 75.7248L232.651 67.4432L237.502 99.5584L192.2 107.098L191.702 107.187C159.916 111.782 137.804 137.28 142.337 164.045C146.87 190.81 176.279 208.73 207.927 204.275L255.468 195.891L261.935 227.2L214.008 235.635L213.455 235.725C208.375 236.462 203.242 236.834 198.101 236.838Z" fill="#263238" stroke="#263238" stroke-linecap="round" stroke-linejoin="round"/>
<path d="M197.037 233.395C178.17 233.458 159.715 228.286 144.051 218.547C134.253 212.574 125.905 204.776 119.541 195.65C113.176 186.524 108.933 176.271 107.082 165.542C99.5918 121.498 134.501 79.7056 184.944 72.2816L231.587 64L236.368 96.1152L191.066 103.654C190.903 103.692 190.737 103.718 190.569 103.731C158.783 108.326 136.671 133.837 141.218 160.602C145.764 187.366 175.146 205.286 206.807 200.832L254.459 192.448L260.996 223.757L213.04 232.192L212.487 232.282C207.376 233.023 202.21 233.395 197.037 233.395Z" fill="#3AD893" stroke="#263238" stroke-linecap="round" stroke-linejoin="round"/>
<path d="M189.74 229.325C174.226 228.239 159.282 223.441 146.372 215.398C137.627 209.977 130.064 203.077 124.081 195.059" fill="#3AD893"/>
<path d="M189.74 229.325C174.226 228.239 159.282 223.441 146.372 215.398C137.627 209.977 130.064 203.077 124.081 195.059" stroke="#263238" stroke-linecap="round" stroke-linejoin="round"/>
<path d="M201.348 229.453C199.966 229.453 198.474 229.555 197.037 229.555L201.348 229.453Z" fill="#3AD893"/>
<path d="M201.348 229.453C199.966 229.453 198.474 229.555 197.037 229.555" stroke="#263238" stroke-linecap="round" stroke-linejoin="round"/>
<path d="M168.678 106.509C160.258 110.62 152.953 116.445 147.312 123.546C143.007 128.883 139.889 134.959 138.138 141.421C136.388 147.883 136.039 154.603 137.113 161.19C139.877 177.19 150.712 190.438 165.928 198.118" stroke="#263238" stroke-linecap="round" stroke-linejoin="round"/>
<path d="M121.538 115.789C128.409 105.22 137.711 96.1844 148.783 89.3258C159.855 82.4672 172.424 77.9544 185.594 76.1088L228.076 68.5696L231.711 93.0176L189.919 99.968C186.196 100.516 182.526 101.342 178.946 102.438" stroke="#263238" stroke-linecap="round" stroke-linejoin="round"/>
<path d="M116.19 125.76C117.019 123.891 117.94 122.057 118.954 120.256" stroke="#263238" stroke-linecap="round" stroke-linejoin="round"/>
<path d="M200.492 102.093L236.368 96.1152L231.587 64L195.143 70.4768L200.492 102.093Z" fill="white" stroke="#263238" stroke-linecap="round" stroke-linejoin="round"/>
<path d="M260.926 223.757L254.459 192.448L216.868 199.053L222.189 230.566L260.926 223.757Z" fill="white" stroke="#263238" stroke-linecap="round" stroke-linejoin="round"/>
<path d="M90.8299 222.08C90.8299 222.08 141.204 224.768 143.691 224.384C146.179 224 153.974 216.282 155.936 215.424C157.898 214.566 161.851 217.229 164.228 218.099C166.605 218.97 168.609 217.805 168.789 219.584C168.968 221.363 167.559 222.054 164.836 221.926C162.113 221.798 160.483 221.453 159.128 221.389C157.774 221.325 161.975 224.064 165.624 227.277C169.272 230.49 172.202 231.642 171.304 233.114C170.406 234.586 168.236 234.227 166.923 233.114C165.61 232 161.809 231.834 158.811 231.706C155.812 231.578 150.753 229.299 150.753 229.299C143.752 230.828 136.665 232.003 129.526 232.819C114.117 234.854 92.3778 237.85 86.3937 237.299C80.4097 236.749 76.4709 229.235 76.4709 229.235L90.8299 222.08Z" fill="white" stroke="#263238" stroke-linecap="round" stroke-linejoin="round"/>
<path d="M58.9472 172.237C58.9472 172.237 50.8487 175.155 48.6651 179.456C46.4815 183.757 48.9415 190.822 52.203 196.378C55.4645 201.933 75.393 230.938 75.393 230.938L87.3887 220.838C87.3887 220.838 76.4848 189.018 75.1166 186.278" fill="white"/>
<path d="M58.9472 172.237C58.9472 172.237 50.8487 175.155 48.6651 179.456C46.4815 183.757 48.9415 190.822 52.203 196.378C55.4645 201.933 75.393 230.938 75.393 230.938L87.3887 220.838C87.3887 220.838 76.4848 189.018 75.1166 186.278" stroke="#263238" stroke-linecap="round" stroke-linejoin="round"/>
<path d="M61.9875 182.733C63.5684 182.626 65.1562 182.816 66.6551 183.294C68.154 183.771 69.5328 184.525 70.708 185.51" stroke="#263238" stroke-linecap="round" stroke-linejoin="round"/>
<path d="M73.7484 180.467C73.7484 180.467 77.8944 181.222 79.2764 189.555" stroke="#263238" stroke-linecap="round" stroke-linejoin="round"/>
<path d="M84.6662 212.544C84.6662 212.544 76.2083 216.077 71.5786 220.877C66.9489 225.677 67.4326 227.187 70.4868 230.221C73.5411 233.254 75.3929 234.765 77.3001 233.51C79.2073 232.256 92.0322 224.41 92.8476 222.387C93.663 220.365 90.9405 212.8 89.0333 212.032C87.5615 211.665 85.9928 211.849 84.6662 212.544Z" fill="white" stroke="#263238" stroke-linecap="round" stroke-linejoin="round"/>
<path d="M150.933 132.467C150.933 132.467 159.391 125.146 160.483 121.6C161.575 118.054 159.101 112.512 158.299 112.256C157.498 112 156.668 113.536 156.668 115.546C156.668 115.546 154.208 112.768 153.904 114.79C153.748 115.963 153.661 117.142 153.642 118.323C153.642 118.323 151.182 115.763 150.643 117.568C150.51 118.118 150.541 118.691 150.733 119.225C150.926 119.76 151.272 120.236 151.735 120.602C151.735 120.602 148.183 118.042 148.183 119.834C148.305 121.07 148.881 122.231 149.814 123.123C149.814 123.123 145.184 128.934 145.46 131.968C145.434 132.735 145.733 133.481 146.294 134.046C146.855 134.61 147.632 134.949 148.459 134.989" fill="white"/>
<path d="M150.933 132.467C150.933 132.467 159.391 125.146 160.483 121.6C161.575 118.054 159.101 112.512 158.299 112.256C157.498 112 156.668 113.536 156.668 115.546C156.668 115.546 154.208 112.768 153.904 114.79C153.748 115.963 153.661 117.142 153.642 118.323C153.642 118.323 151.182 115.763 150.643 117.568C150.51 118.118 150.541 118.691 150.733 119.225C150.926 119.76 151.272 120.236 151.735 120.602C151.735 120.602 148.183 118.042 148.183 119.834C148.305 121.07 148.881 122.231 149.814 123.123C149.814 123.123 145.184 128.934 145.46 131.968C145.434 132.735 145.733 133.481 146.294 134.046C146.855 134.61 147.632 134.949 148.459 134.989" stroke="#263238" stroke-linecap="round" stroke-linejoin="round"/>
<path d="M151.818 120.602C151.818 120.602 153.725 122.368 153.448 123.878" stroke="#263238" stroke-linecap="round" stroke-linejoin="round"/>
<path d="M153.669 118.323C153.669 118.323 155.853 121.101 155.853 122.867" stroke="#263238" stroke-linecap="round" stroke-linejoin="round"/>
<path d="M156.668 115.546C157.885 117.104 158.638 118.932 158.852 120.845" stroke="#263238" stroke-linecap="round" stroke-linejoin="round"/>
<path d="M65.2767 398.515C65.2767 398.515 76.3327 408.32 79.5666 411.315C82.8005 414.31 86.9327 416 83.7126 416C80.4925 416 73.5687 416.858 67.1286 415.155C60.6885 413.453 55.6027 408.32 53.3086 405.76C51.0145 403.2 57.4546 398.08 57.4546 398.08L65.2767 398.515Z" fill="white" stroke="#263238" stroke-linecap="round" stroke-linejoin="round"/>
<path d="M82.4688 413.645C76.6221 414.338 70.6839 413.902 65.0279 412.365C60.7161 411.085 55.5751 404.685 53.6264 402.125C52.8111 403.405 52.4379 404.685 53.3086 405.696C55.6027 408.256 60.6747 413.376 67.1286 415.091C73.5825 416.806 80.4787 415.936 83.7126 415.936C85.9791 416 84.5971 415.155 82.4688 413.645Z" fill="white" stroke="#263238" stroke-linecap="round" stroke-linejoin="round"/>
<path d="M202.565 379.315C202.565 379.315 227.441 389.12 229.279 389.555C231.117 389.99 231.49 392.704 222.908 392.704C219.218 392.704 205.315 393.549 202.095 393.549C198.875 393.549 195.185 393.818 194.273 392.115C193.361 390.413 194.729 382.298 194.729 382.298L202.565 379.315Z" fill="white" stroke="#263238" stroke-linecap="round" stroke-linejoin="round"/>
<path d="M229.279 389.555H229.21C218.513 391.014 199.275 390.771 193.982 390.669C193.977 391.172 194.076 391.672 194.273 392.141C195.185 393.843 198.861 393.574 202.095 393.574C205.329 393.574 219.218 392.73 222.908 392.73C231.49 392.704 231.117 389.978 229.279 389.555Z" fill="white" stroke="#263238" stroke-linecap="round" stroke-linejoin="round"/>
<path d="M85.91 169.267L87.9415 175.667L83.9337 174.4L85.91 169.267Z" fill="white" stroke="#263238" stroke-linecap="round" stroke-linejoin="round"/>
<path d="M89.0333 114.534C89.0333 114.534 87.3887 109.99 80.5754 109.478C73.7622 108.966 61.4762 118.067 60.3844 124.39C59.2926 130.714 69.3951 147.622 72.394 150.144C75.393 152.666 100.753 151.923 101.568 148.634C102.383 145.344 94.4784 124.134 89.0333 114.534Z" fill="white" stroke="#263238" stroke-linecap="round" stroke-linejoin="round"/>
<path d="M88.4805 129.946C88.4805 129.946 91.2445 133.222 92.8477 133.478C94.4508 133.734 96.9937 133.222 95.6117 134.758C94.2297 136.294 89.6138 137.318 89.6138 137.318" stroke="#263238" stroke-linecap="round" stroke-linejoin="round"/>
<path d="M89.6276 141.555C89.6276 141.555 83.6297 142.835 80.9072 138.778" stroke="#263238" stroke-linecap="round" stroke-linejoin="round"/>
<path d="M81.9437 137.766L79.4837 139.789" stroke="#263238" stroke-linecap="round" stroke-linejoin="round"/>
<path d="M80.8519 132.467C81.8879 131.715 83.0995 131.198 84.3898 130.957" stroke="#263238" stroke-linecap="round" stroke-linejoin="round"/>
<path d="M76.7612 128.422C76.7612 128.422 78.3919 126.157 83.5744 127.142" stroke="#263238" stroke-linecap="round" stroke-linejoin="round"/>
<path d="M85.4816 124.365C85.4816 124.365 85.2052 120.525 89.0333 120.819" stroke="#263238" stroke-linecap="round" stroke-linejoin="round"/>
<path d="M92.2257 127.859C92.668 128.755 92.6818 129.613 92.2257 129.792C91.7697 129.971 91.134 129.37 90.6917 128.512C90.2495 127.654 90.2495 126.758 90.6917 126.592C91.134 126.426 91.7973 126.925 92.2257 127.859Z" fill="#263238"/>
<path d="M67.2115 139.29C67.2115 139.29 71.3575 138.278 71.3575 136.256C71.3575 134.234 69.713 133.696 70.2658 132.211C70.8186 130.726 74.6329 128.678 73.5411 126.4C72.4493 124.122 66.9904 124.134 67.5432 122.368C68.096 120.602 86.3522 116.301 87.7204 111.002C89.0886 105.702 83.0769 99.1232 78.4472 99.3792C73.8175 99.6352 76.2636 104.934 76.2636 104.934C76.2636 104.934 62.6233 101.094 59.9008 105.946C57.1782 110.797 62.3607 113.024 62.3607 113.024C62.3607 113.024 52.8111 117.056 51.9957 123.123C51.1803 129.19 62.6233 140.8 65.0833 141.555C67.5432 142.31 67.2115 139.29 67.2115 139.29Z" fill="#263238" stroke="#263238" stroke-linecap="round" stroke-linejoin="round"/>
<path d="M66.1335 122.829C66.1335 122.829 58.3114 127.834 57.2335 131.789" stroke="white" stroke-width="0.5" stroke-linecap="round" stroke-linejoin="round"/>
<path d="M72.1315 125.325C72.1315 125.325 62.4575 129.331 59.4447 135.078" stroke="white" stroke-width="0.5" stroke-linecap="round" stroke-linejoin="round"/>
<path d="M69.3951 140.8C69.3951 140.8 67.7505 137.267 64.7515 137.523C61.7526 137.779 62.568 141.811 65.5669 145.101C68.5659 148.39 72.1176 146.112 72.394 145.357" fill="white"/>
<path d="M69.3951 140.8C69.3951 140.8 67.7505 137.267 64.7515 137.523C61.7526 137.779 62.568 141.811 65.5669 145.101C68.5659 148.39 72.1176 146.112 72.394 145.357" stroke="#263238" stroke-linecap="round" stroke-linejoin="round"/>
<path d="M406.598 178.088H369.366V200.756H406.598V178.088Z" fill="white" stroke="#263238" stroke-linecap="round" stroke-linejoin="round"/>
<path d="M369.366 178.088L387.982 189.416L406.598 178.088" stroke="#263238" stroke-linecap="round" stroke-linejoin="round"/>
<path d="M485.579 132.779L449.511 124.227L443.441 146.188L479.509 154.74L485.579 132.779Z" fill="white" stroke="#263238" stroke-linecap="round" stroke-linejoin="round"/>
<path d="M449.495 124.251L464.489 139.508L485.565 132.801" stroke="#263238" stroke-linecap="round" stroke-linejoin="round"/>
<path d="M464.413 248.831L428.345 240.279L422.275 262.239L458.342 270.792L464.413 248.831Z" fill="white" stroke="#263238" stroke-linecap="round" stroke-linejoin="round"/>
<path d="M428.295 240.308L443.303 255.566L464.365 248.859" stroke="#263238" stroke-linecap="round" stroke-linejoin="round"/>
<path d="M504.059 171.277L467.991 162.725L461.921 184.685L497.989 193.237L504.059 171.277Z" fill="white" stroke="#263238" stroke-linecap="round" stroke-linejoin="round"/>
<path d="M467.972 162.753L482.967 178.011L504.042 171.316" stroke="#263238" stroke-linecap="round" stroke-linejoin="round"/>
<path d="M470.145 210.49L446.313 183.998L427.509 198.508L451.341 225.001L470.145 210.49Z" fill="white" stroke="#263238" stroke-linecap="round" stroke-linejoin="round"/>
<path d="M446.316 183.988L448.831 204.494L470.156 210.484" stroke="#263238" stroke-linecap="round" stroke-linejoin="round"/>
<path d="M517.125 128.564L493.293 102.071L474.489 116.581L498.321 143.074L517.125 128.564Z" fill="white" stroke="#263238" stroke-linecap="round" stroke-linejoin="round"/>
<path d="M493.304 102.068L495.819 122.574L517.144 128.564" stroke="#263238" stroke-linecap="round" stroke-linejoin="round"/>
<path d="M496.126 204.337L466.341 224.682L480.781 242.817L510.566 222.472L496.126 204.337Z" fill="white" stroke="#263238" stroke-width="0.994032" stroke-linecap="round" stroke-linejoin="round"/>
<path d="M469.893 224.372L492.129 223.272L499.869 203.918" stroke="#263238" stroke-linecap="round" stroke-linejoin="round"/>
<path d="M316.422 103.809H279.191V126.478H316.422V103.809Z" fill="white" stroke="#263238" stroke-linecap="round" stroke-linejoin="round"/>
<path d="M279.191 103.809L297.806 115.137L316.422 103.809" stroke="#263238" stroke-linecap="round" stroke-linejoin="round"/>
<path d="M352.348 121.287L325.387 97.5069L308.508 113.923L335.47 137.703L352.348 121.287Z" fill="white" stroke="#263238" stroke-linecap="round" stroke-linejoin="round"/>
<path d="M325.364 97.5117L330.408 117.608L352.326 121.294" stroke="#263238" stroke-linecap="round" stroke-linejoin="round"/>
<path d="M449.534 88L415.824 102.639L426.214 123.163L459.924 108.525L449.534 88Z" fill="white" stroke="#263238" stroke-linecap="round" stroke-linejoin="round"/>
<path d="M415.829 102.67L437.872 105.614L449.536 88.0397" stroke="#263238" stroke-linecap="round" stroke-linejoin="round"/>
<path d="M389.355 134.319L398.349 100.857L374.599 95.3803L365.605 128.842L389.355 134.319Z" fill="white" stroke="#263238" stroke-linecap="round" stroke-linejoin="round"/>
<path d="M398.361 100.865L381.984 114.856L389.364 134.324" stroke="#263238" stroke-linecap="round" stroke-linejoin="round"/>
<path d="M308.081 226.646L277.524 246.346L291.506 264.951L322.064 245.251L308.081 226.646Z" fill="white" stroke="#263238" stroke-linecap="round" stroke-linejoin="round"/>
<path d="M277.532 246.324L299.796 245.774L308.088 226.625" stroke="#263238" stroke-linecap="round" stroke-linejoin="round"/>
<path d="M353.277 231.23L322.748 250.885L336.699 269.474L367.228 249.818L353.277 231.23Z" fill="white" stroke="#263238" stroke-width="0.998649" stroke-linecap="round" stroke-linejoin="round"/>
<path d="M323.443 250.638L345.707 250.088L353.999 230.939" stroke="#263238" stroke-linecap="round" stroke-linejoin="round"/>
<path d="M320.299 134.842L287.182 119.085L275.998 139.249L309.115 155.006L320.299 134.842Z" fill="white" stroke="#263238" stroke-linecap="round" stroke-linejoin="round"/>
<path d="M287.193 119.08L298.166 137.038L320.305 134.836" stroke="#263238" stroke-linecap="round" stroke-linejoin="round"/>
<path d="M334.953 266.097L301.836 250.34L290.652 270.504L323.769 286.261L334.953 266.097Z" fill="white" stroke="#263238" stroke-linecap="round" stroke-linejoin="round"/>
<path d="M301.828 250.331L312.801 268.302L334.955 266.1" stroke="#263238" stroke-linecap="round" stroke-linejoin="round"/>
</svg>
